<svg viewBox="0 0 20 20" fill="currentColor" xmlns="http://www.w3.org/2000/svg">
  <path fill-rule="evenodd" clip-rule="evenodd" d="M15.5343 4.14757C15.3512 3.95081 15.053 3.95081 14.8711 4.14757L7.88205 11.5702C7.6989 11.7683 7.40011 11.7683 7.21821 11.5702L4.15592 8.24272C4.06528 8.14401 3.94651 8.09532 3.82712 8.09465C3.70648 8.09399 3.58396 8.14267 3.49208 8.24272L2.13877 9.54063C2.04876 9.63934 2 9.76273 2 9.89145C2 10.0208 2.04876 10.1562 2.13939 10.2543L5.22731 13.7118C5.40984 13.9092 5.70925 14.2294 5.89115 14.4255L7.21883 15.8534C7.40136 16.0489 7.69952 16.0489 7.88267 15.8534L16.8626 6.28918C17.0458 6.0931 17.0458 5.77095 16.8626 5.57487L15.5343 4.14757Z"/>
</svg>
