<svg viewBox="0 0 24 24" fill="currentColor" xmlns="http://www.w3.org/2000/svg">
<path d="M24 12C24 13.5759 23.6896 15.1363 23.0866 16.5922C22.4835 18.0481 21.5996 19.371 20.4853 20.4853C19.371 21.5996 18.0481 22.4835 16.5922 23.0866C15.1363 23.6896 13.5759 24 12 24C10.4241 24 8.86371 23.6896 7.4078 23.0866C5.95189 22.4835 4.62902 21.5996 3.51472 20.4853C2.40042 19.371 1.5165 18.0481 0.913445 16.5922C0.310389 15.1363 -1.37766e-07 13.5759 0 12L3.04538 12C3.04538 13.1759 3.277 14.3404 3.72701 15.4268C4.17702 16.5132 4.83661 17.5004 5.66813 18.3319C6.49964 19.1634 7.48679 19.823 8.57321 20.273C9.65964 20.723 10.8241 20.9546 12 20.9546C13.1759 20.9546 14.3404 20.723 15.4268 20.273C16.5132 19.823 17.5004 19.1634 18.3319 18.3319C19.1634 17.5004 19.823 16.5132 20.273 15.4268C20.723 14.3404 20.9546 13.1759 20.9546 12L24 12Z"/>
</svg>
