<svg viewBox="0 0 24 24" fill="currentColor" xmlns="http://www.w3.org/2000/svg">
  <g clip-path="url(#clip0)">
    <path d="M24 12C24 13.5759 23.6896 15.1363 23.0866 16.5922C22.4835 18.0481 21.5996 19.371 20.4853 20.4853C19.371 21.5996 18.0481 22.4835 16.5922 23.0866C15.1363 23.6896 13.5759 24 12 24L12 20.9546C13.1759 20.9546 14.3404 20.723 15.4268 20.273C16.5132 19.823 17.5004 19.1634 18.3319 18.3319C19.1634 17.5004 19.823 16.5132 20.273 15.4268C20.723 14.3404 20.9546 13.1759 20.9546 12L24 12Z" fill="black"/>
    <path d="M12 24C9.62662 24 7.30655 23.2962 5.33316 21.9776C3.35977 20.6591 1.8217 18.7849 0.913445 16.5922C0.00519313 14.3995 -0.232447 11.9867 0.230575 9.65892C0.693598 7.33115 1.83649 5.19295 3.51472 3.51472C5.19295 1.83649 7.33114 0.693601 9.65891 0.230578C11.9867 -0.232445 14.3995 0.0051949 16.5922 0.913446C18.7849 1.8217 20.6591 3.35977 21.9776 5.33316C23.2962 7.30655 24 9.62662 24 12L20.9546 12C20.9546 10.2289 20.4294 8.49766 19.4455 7.02508C18.4615 5.5525 17.063 4.40476 15.4268 3.72701C13.7905 3.04926 11.9901 2.87192 10.253 3.21744C8.51601 3.56296 6.92045 4.4158 5.66813 5.66813C4.4158 6.92045 3.56295 8.51602 3.21744 10.253C2.87192 11.9901 3.04925 13.7905 3.72701 15.4268C4.40476 17.063 5.5525 18.4616 7.02508 19.4455C8.49766 20.4294 10.2289 20.9546 12 20.9546L12 24Z" fill="black" fill-opacity="0.25"/>
  </g>
</svg>
