<svg viewBox="0 0 20 20" fill="currentColor" xmlns="http://www.w3.org/2000/svg">
  <path d="M14.1875 17.5H5.81253C5.11924 17.5048 4.43717 17.3249 3.83636 16.9789C3.23555 16.6329 2.73765 16.1333 2.39378 15.5313C2.04824 14.9418 1.86609 14.2708 1.86609 13.5875C1.86609 12.9042 2.04824 12.2333 2.39378 11.6438L6.60003 4.45001C6.94693 3.85609 7.44336 3.36341 8.03989 3.02101C8.63641 2.67861 9.31222 2.49844 10 2.49844C10.6878 2.49844 11.3636 2.67861 11.9602 3.02101C12.5567 3.36341 13.0531 3.85609 13.4 4.45001L17.5938 11.6438C17.9393 12.2333 18.1215 12.9042 18.1215 13.5875C18.1215 14.2708 17.9393 14.9418 17.5938 15.5313C17.251 16.1314 16.755 16.6299 16.1566 16.9758C15.5582 17.3216 14.8787 17.5025 14.1875 17.5ZM10 3.75001C9.53083 3.74581 9.06893 3.86626 8.66154 4.09906C8.25415 4.33185 7.91587 4.66865 7.68128 5.07501L3.48753 12.275C3.25285 12.6737 3.1291 13.128 3.1291 13.5906C3.1291 14.0533 3.25285 14.5075 3.48753 14.9063C3.71973 15.3175 4.05784 15.659 4.46671 15.8953C4.87559 16.1316 5.3403 16.2541 5.81253 16.25H14.1875C14.6608 16.2552 15.1268 16.1333 15.5369 15.8969C15.947 15.6605 16.2861 15.3184 16.5188 14.9063C16.7535 14.5075 16.8772 14.0533 16.8772 13.5906C16.8772 13.128 16.7535 12.6737 16.5188 12.275L12.3188 5.07501C12.0842 4.66865 11.7459 4.33185 11.3385 4.09906C10.9311 3.86626 10.4692 3.74581 10 3.75001V3.75001Z"/>
  <path d="M11.25 6.87502C11.1001 6.68742 10.9099 6.53597 10.6936 6.43189C10.4772 6.32781 10.2401 6.27377 10 6.27377C9.75989 6.27377 9.52285 6.32781 9.30647 6.43189C9.09008 6.53597 8.8999 6.68742 8.75001 6.87502C8.59905 7.06515 8.49447 7.28784 8.44456 7.52543C8.39466 7.76302 8.4008 8.00897 8.46251 8.24377L9.37501 12.025C9.40888 12.1602 9.48693 12.2801 9.59677 12.3658C9.70661 12.4515 9.84194 12.4981 9.98126 12.4981C10.1206 12.4981 10.2559 12.4515 10.3657 12.3658C10.4756 12.2801 10.5536 12.1602 10.5875 12.025L11.5313 8.23752C11.5928 8.00412 11.5994 7.75963 11.5506 7.52324C11.5018 7.28684 11.3989 7.06497 11.25 6.87502V6.87502ZM10.3375 7.93752L10 9.30002L9.66251 7.93752C9.64745 7.88623 9.64528 7.83202 9.65618 7.77969C9.66708 7.72736 9.69073 7.67853 9.72501 7.63752C9.75703 7.59482 9.79855 7.56017 9.84628 7.53631C9.89401 7.51244 9.94664 7.50002 10 7.50002C10.0534 7.50002 10.106 7.51244 10.1537 7.53631C10.2015 7.56017 10.243 7.59482 10.275 7.63752C10.3093 7.67853 10.3329 7.72736 10.3438 7.77969C10.3547 7.83202 10.3526 7.88623 10.3375 7.93752V7.93752Z"/>
  <path d="M10 15C10.5178 15 10.9375 14.5803 10.9375 14.0625C10.9375 13.5447 10.5178 13.125 10 13.125C9.48223 13.125 9.0625 13.5447 9.0625 14.0625C9.0625 14.5803 9.48223 15 10 15Z"/>
</svg>
